<svg xmlns="http://www.w3.org/2000/svg" role="img" aria-label="3D model loading poster" viewBox="0 0 1200 720">
  <defs>
    <linearGradient id="sky" x1="0" x2="1" y1="0" y2="1">
      <stop offset="0" stop-color="#1c435a"/>
      <stop offset="0.52" stop-color="#172231"/>
      <stop offset="1" stop-color="#4a3323"/>
    </linearGradient>
    <pattern id="grid" width="54" height="54" patternUnits="userSpaceOnUse">
      <path d="M54 0H0v54" fill="none" stroke="#75aeca" stroke-opacity="0.18" stroke-width="1"/>
    </pattern>
  </defs>
  <rect width="1200" height="720" fill="url(#sky)"/>
  <rect width="1200" height="720" fill="url(#grid)"/>
  <path d="M0 548c111-65 177-88 270-94 112-7 192 45 284 39 113-7 171-93 291-101 132-9 221 79 355 48v280H0Z" fill="#2f6f8f" opacity="0.42"/>
  <path d="M0 618c130-58 241-65 339-44 124 26 196 85 331 69 130-16 215-94 344-94 75 0 136 21 186 49v122H0Z" fill="#9b6736" opacity="0.52"/>
  <g fill="none" stroke="#fff8ec" stroke-linecap="round" opacity="0.32">
    <path d="M104 190c78-30 137-31 196-4 72 33 127 25 188-18 67-48 130-52 205-12 67 36 137 37 211 6 68-28 131-24 191 17"/>
    <path d="M132 238c90-34 159-34 229-1 75 36 138 28 205-20 70-50 140-55 219-12 70 38 144 39 221 7"/>
    <path d="M78 286c103-40 185-42 265-4 83 39 154 32 226-21 76-56 154-61 240-14 79 43 160 44 245 8"/>
  </g>
  <text x="600" y="332" fill="#fff8ec" font-family="Inter, system-ui, sans-serif" font-size="34" font-weight="700" text-anchor="middle">Preparing 3D model</text>
  <text x="600" y="378" fill="#c9dce4" font-family="Inter, system-ui, sans-serif" font-size="20" text-anchor="middle">Optimized GLB preview with Apple Quick Look USDZ handoff</text>
</svg>
