<svg role="img" aria-label="QR code for 3D SciVis Model Viewer" version="1.1" xmlns="http://www.w3.org/2000/svg" width="173px" height="173px" viewBox="0 0 173 173"  preserveAspectRatio="xMinYMin meet"><rect width="100%" height="100%" fill="white" cx="0" cy="0"/><path d="M4,4l5,0 0,5 -5,0 0,-5z M9,4l5,0 0,5 -5,0 0,-5z M14,4l5,0 0,5 -5,0 0,-5z M19,4l5,0 0,5 -5,0 0,-5z M24,4l5,0 0,5 -5,0 0,-5z M29,4l5,0 0,5 -5,0 0,-5z M34,4l5,0 0,5 -5,0 0,-5z M44,4l5,0 0,5 -5,0 0,-5z M59,4l5,0 0,5 -5,0 0,-5z M69,4l5,0 0,5 -5,0 0,-5z M89,4l5,0 0,5 -5,0 0,-5z M94,4l5,0 0,5 -5,0 0,-5z M109,4l5,0 0,5 -5,0 0,-5z M114,4l5,0 0,5 -5,0 0,-5z M134,4l5,0 0,5 -5,0 0,-5z M139,4l5,0 0,5 -5,0 0,-5z M144,4l5,0 0,5 -5,0 0,-5z M149,4l5,0 0,5 -5,0 0,-5z M154,4l5,0 0,5 -5,0 0,-5z M159,4l5,0 0,5 -5,0 0,-5z M164,4l5,0 0,5 -5,0 0,-5z M4,9l5,0 0,5 -5,0 0,-5z M34,9l5,0 0,5 -5,0 0,-5z M44,9l5,0 0,5 -5,0 0,-5z M49,9l5,0 0,5 -5,0 0,-5z M59,9l5,0 0,5 -5,0 0,-5z M69,9l5,0 0,5 -5,0 0,-5z M74,9l5,0 0,5 -5,0 0,-5z M84,9l5,0 0,5 -5,0 0,-5z M94,9l5,0 0,5 -5,0 0,-5z M99,9l5,0 0,5 -5,0 0,-5z M114,9l5,0 0,5 -5,0 0,-5z M134,9l5,0 0,5 -5,0 0,-5z M164,9l5,0 0,5 -5,0 0,-5z M4,14l5,0 0,5 -5,0 0,-5z M14,14l5,0 0,5 -5,0 0,-5z M19,14l5,0 0,5 -5,0 0,-5z M24,14l5,0 0,5 -5,0 0,-5z M34,14l5,0 0,5 -5,0 0,-5z M44,14l5,0 0,5 -5,0 0,-5z M54,14l5,0 0,5 -5,0 0,-5z M64,14l5,0 0,5 -5,0 0,-5z M69,14l5,0 0,5 -5,0 0,-5z M74,14l5,0 0,5 -5,0 0,-5z M79,14l5,0 0,5 -5,0 0,-5z M99,14l5,0 0,5 -5,0 0,-5z M104,14l5,0 0,5 -5,0 0,-5z M109,14l5,0 0,5 -5,0 0,-5z M124,14l5,0 0,5 -5,0 0,-5z M134,14l5,0 0,5 -5,0 0,-5z M144,14l5,0 0,5 -5,0 0,-5z M149,14l5,0 0,5 -5,0 0,-5z M154,14l5,0 0,5 -5,0 0,-5z M164,14l5,0 0,5 -5,0 0,-5z M4,19l5,0 0,5 -5,0 0,-5z M14,19l5,0 0,5 -5,0 0,-5z M19,19l5,0 0,5 -5,0 0,-5z M24,19l5,0 0,5 -5,0 0,-5z M34,19l5,0 0,5 -5,0 0,-5z M49,19l5,0 0,5 -5,0 0,-5z M59,19l5,0 0,5 -5,0 0,-5z M74,19l5,0 0,5 -5,0 0,-5z M79,19l5,0 0,5 -5,0 0,-5z M84,19l5,0 0,5 -5,0 0,-5z M94,19l5,0 0,5 -5,0 0,-5z M104,19l5,0 0,5 -5,0 0,-5z M109,19l5,0 0,5 -5,0 0,-5z M119,19l5,0 0,5 -5,0 0,-5z M124,19l5,0 0,5 -5,0 0,-5z M134,19l5,0 0,5 -5,0 0,-5z M144,19l5,0 0,5 -5,0 0,-5z M149,19l5,0 0,5 -5,0 0,-5z M154,19l5,0 0,5 -5,0 0,-5z M164,19l5,0 0,5 -5,0 0,-5z M4,24l5,0 0,5 -5,0 0,-5z M14,24l5,0 0,5 -5,0 0,-5z M19,24l5,0 0,5 -5,0 0,-5z M24,24l5,0 0,5 -5,0 0,-5z M34,24l5,0 0,5 -5,0 0,-5z M44,24l5,0 0,5 -5,0 0,-5z M54,24l5,0 0,5 -5,0 0,-5z M64,24l5,0 0,5 -5,0 0,-5z M79,24l5,0 0,5 -5,0 0,-5z M84,24l5,0 0,5 -5,0 0,-5z M89,24l5,0 0,5 -5,0 0,-5z M109,24l5,0 0,5 -5,0 0,-5z M114,24l5,0 0,5 -5,0 0,-5z M134,24l5,0 0,5 -5,0 0,-5z M144,24l5,0 0,5 -5,0 0,-5z M149,24l5,0 0,5 -5,0 0,-5z M154,24l5,0 0,5 -5,0 0,-5z M164,24l5,0 0,5 -5,0 0,-5z M4,29l5,0 0,5 -5,0 0,-5z M34,29l5,0 0,5 -5,0 0,-5z M69,29l5,0 0,5 -5,0 0,-5z M79,29l5,0 0,5 -5,0 0,-5z M84,29l5,0 0,5 -5,0 0,-5z M94,29l5,0 0,5 -5,0 0,-5z M99,29l5,0 0,5 -5,0 0,-5z M119,29l5,0 0,5 -5,0 0,-5z M134,29l5,0 0,5 -5,0 0,-5z M164,29l5,0 0,5 -5,0 0,-5z M4,34l5,0 0,5 -5,0 0,-5z M9,34l5,0 0,5 -5,0 0,-5z M14,34l5,0 0,5 -5,0 0,-5z M19,34l5,0 0,5 -5,0 0,-5z M24,34l5,0 0,5 -5,0 0,-5z M29,34l5,0 0,5 -5,0 0,-5z M34,34l5,0 0,5 -5,0 0,-5z M44,34l5,0 0,5 -5,0 0,-5z M54,34l5,0 0,5 -5,0 0,-5z M64,34l5,0 0,5 -5,0 0,-5z M74,34l5,0 0,5 -5,0 0,-5z M84,34l5,0 0,5 -5,0 0,-5z M94,34l5,0 0,5 -5,0 0,-5z M104,34l5,0 0,5 -5,0 0,-5z M114,34l5,0 0,5 -5,0 0,-5z M124,34l5,0 0,5 -5,0 0,-5z M134,34l5,0 0,5 -5,0 0,-5z M139,34l5,0 0,5 -5,0 0,-5z M144,34l5,0 0,5 -5,0 0,-5z M149,34l5,0 0,5 -5,0 0,-5z M154,34l5,0 0,5 -5,0 0,-5z M159,34l5,0 0,5 -5,0 0,-5z M164,34l5,0 0,5 -5,0 0,-5z M49,39l5,0 0,5 -5,0 0,-5z M59,39l5,0 0,5 -5,0 0,-5z M69,39l5,0 0,5 -5,0 0,-5z M79,39l5,0 0,5 -5,0 0,-5z M84,39l5,0 0,5 -5,0 0,-5z M94,39l5,0 0,5 -5,0 0,-5z M124,39l5,0 0,5 -5,0 0,-5z M4,44l5,0 0,5 -5,0 0,-5z M19,44l5,0 0,5 -5,0 0,-5z M24,44l5,0 0,5 -5,0 0,-5z M29,44l5,0 0,5 -5,0 0,-5z M34,44l5,0 0,5 -5,0 0,-5z M39,44l5,0 0,5 -5,0 0,-5z M44,44l5,0 0,5 -5,0 0,-5z M59,44l5,0 0,5 -5,0 0,-5z M64,44l5,0 0,5 -5,0 0,-5z M74,44l5,0 0,5 -5,0 0,-5z M84,44l5,0 0,5 -5,0 0,-5z M89,44l5,0 0,5 -5,0 0,-5z M94,44l5,0 0,5 -5,0 0,-5z M104,44l5,0 0,5 -5,0 0,-5z M119,44l5,0 0,5 -5,0 0,-5z M129,44l5,0 0,5 -5,0 0,-5z M144,44l5,0 0,5 -5,0 0,-5z M154,44l5,0 0,5 -5,0 0,-5z M159,44l5,0 0,5 -5,0 0,-5z M164,44l5,0 0,5 -5,0 0,-5z M4,49l5,0 0,5 -5,0 0,-5z M9,49l5,0 0,5 -5,0 0,-5z M14,49l5,0 0,5 -5,0 0,-5z M19,49l5,0 0,5 -5,0 0,-5z M29,49l5,0 0,5 -5,0 0,-5z M49,49l5,0 0,5 -5,0 0,-5z M59,49l5,0 0,5 -5,0 0,-5z M69,49l5,0 0,5 -5,0 0,-5z M74,49l5,0 0,5 -5,0 0,-5z M79,49l5,0 0,5 -5,0 0,-5z M84,49l5,0 0,5 -5,0 0,-5z M89,49l5,0 0,5 -5,0 0,-5z M94,49l5,0 0,5 -5,0 0,-5z M99,49l5,0 0,5 -5,0 0,-5z M119,49l5,0 0,5 -5,0 0,-5z M144,49l5,0 0,5 -5,0 0,-5z M149,49l5,0 0,5 -5,0 0,-5z M154,49l5,0 0,5 -5,0 0,-5z M19,54l5,0 0,5 -5,0 0,-5z M29,54l5,0 0,5 -5,0 0,-5z M34,54l5,0 0,5 -5,0 0,-5z M54,54l5,0 0,5 -5,0 0,-5z M59,54l5,0 0,5 -5,0 0,-5z M69,54l5,0 0,5 -5,0 0,-5z M79,54l5,0 0,5 -5,0 0,-5z M104,54l5,0 0,5 -5,0 0,-5z M114,54l5,0 0,5 -5,0 0,-5z M119,54l5,0 0,5 -5,0 0,-5z M129,54l5,0 0,5 -5,0 0,-5z M134,54l5,0 0,5 -5,0 0,-5z M144,54l5,0 0,5 -5,0 0,-5z M149,54l5,0 0,5 -5,0 0,-5z M154,54l5,0 0,5 -5,0 0,-5z M159,54l5,0 0,5 -5,0 0,-5z M164,54l5,0 0,5 -5,0 0,-5z M4,59l5,0 0,5 -5,0 0,-5z M9,59l5,0 0,5 -5,0 0,-5z M14,59l5,0 0,5 -5,0 0,-5z M24,59l5,0 0,5 -5,0 0,-5z M49,59l5,0 0,5 -5,0 0,-5z M54,59l5,0 0,5 -5,0 0,-5z M59,59l5,0 0,5 -5,0 0,-5z M64,59l5,0 0,5 -5,0 0,-5z M69,59l5,0 0,5 -5,0 0,-5z M94,59l5,0 0,5 -5,0 0,-5z M119,59l5,0 0,5 -5,0 0,-5z M139,59l5,0 0,5 -5,0 0,-5z M154,59l5,0 0,5 -5,0 0,-5z M164,59l5,0 0,5 -5,0 0,-5z M29,64l5,0 0,5 -5,0 0,-5z M34,64l5,0 0,5 -5,0 0,-5z M44,64l5,0 0,5 -5,0 0,-5z M54,64l5,0 0,5 -5,0 0,-5z M64,64l5,0 0,5 -5,0 0,-5z M69,64l5,0 0,5 -5,0 0,-5z M79,64l5,0 0,5 -5,0 0,-5z M89,64l5,0 0,5 -5,0 0,-5z M124,64l5,0 0,5 -5,0 0,-5z M134,64l5,0 0,5 -5,0 0,-5z M139,64l5,0 0,5 -5,0 0,-5z M164,64l5,0 0,5 -5,0 0,-5z M9,69l5,0 0,5 -5,0 0,-5z M14,69l5,0 0,5 -5,0 0,-5z M39,69l5,0 0,5 -5,0 0,-5z M44,69l5,0 0,5 -5,0 0,-5z M49,69l5,0 0,5 -5,0 0,-5z M54,69l5,0 0,5 -5,0 0,-5z M59,69l5,0 0,5 -5,0 0,-5z M64,69l5,0 0,5 -5,0 0,-5z M69,69l5,0 0,5 -5,0 0,-5z M74,69l5,0 0,5 -5,0 0,-5z M89,69l5,0 0,5 -5,0 0,-5z M94,69l5,0 0,5 -5,0 0,-5z M99,69l5,0 0,5 -5,0 0,-5z M104,69l5,0 0,5 -5,0 0,-5z M109,69l5,0 0,5 -5,0 0,-5z M119,69l5,0 0,5 -5,0 0,-5z M129,69l5,0 0,5 -5,0 0,-5z M139,69l5,0 0,5 -5,0 0,-5z M9,74l5,0 0,5 -5,0 0,-5z M19,74l5,0 0,5 -5,0 0,-5z M34,74l5,0 0,5 -5,0 0,-5z M44,74l5,0 0,5 -5,0 0,-5z M54,74l5,0 0,5 -5,0 0,-5z M69,74l5,0 0,5 -5,0 0,-5z M79,74l5,0 0,5 -5,0 0,-5z M89,74l5,0 0,5 -5,0 0,-5z M99,74l5,0 0,5 -5,0 0,-5z M104,74l5,0 0,5 -5,0 0,-5z M109,74l5,0 0,5 -5,0 0,-5z M114,74l5,0 0,5 -5,0 0,-5z M124,74l5,0 0,5 -5,0 0,-5z M134,74l5,0 0,5 -5,0 0,-5z M149,74l5,0 0,5 -5,0 0,-5z M154,74l5,0 0,5 -5,0 0,-5z M4,79l5,0 0,5 -5,0 0,-5z M9,79l5,0 0,5 -5,0 0,-5z M14,79l5,0 0,5 -5,0 0,-5z M19,79l5,0 0,5 -5,0 0,-5z M24,79l5,0 0,5 -5,0 0,-5z M29,79l5,0 0,5 -5,0 0,-5z M44,79l5,0 0,5 -5,0 0,-5z M54,79l5,0 0,5 -5,0 0,-5z M84,79l5,0 0,5 -5,0 0,-5z M94,79l5,0 0,5 -5,0 0,-5z M104,79l5,0 0,5 -5,0 0,-5z M114,79l5,0 0,5 -5,0 0,-5z M119,79l5,0 0,5 -5,0 0,-5z M129,79l5,0 0,5 -5,0 0,-5z M139,79l5,0 0,5 -5,0 0,-5z M149,79l5,0 0,5 -5,0 0,-5z M154,79l5,0 0,5 -5,0 0,-5z M164,79l5,0 0,5 -5,0 0,-5z M9,84l5,0 0,5 -5,0 0,-5z M14,84l5,0 0,5 -5,0 0,-5z M19,84l5,0 0,5 -5,0 0,-5z M29,84l5,0 0,5 -5,0 0,-5z M34,84l5,0 0,5 -5,0 0,-5z M49,84l5,0 0,5 -5,0 0,-5z M59,84l5,0 0,5 -5,0 0,-5z M79,84l5,0 0,5 -5,0 0,-5z M104,84l5,0 0,5 -5,0 0,-5z M119,84l5,0 0,5 -5,0 0,-5z M124,84l5,0 0,5 -5,0 0,-5z M129,84l5,0 0,5 -5,0 0,-5z M134,84l5,0 0,5 -5,0 0,-5z M139,84l5,0 0,5 -5,0 0,-5z M144,84l5,0 0,5 -5,0 0,-5z M14,89l5,0 0,5 -5,0 0,-5z M24,89l5,0 0,5 -5,0 0,-5z M29,89l5,0 0,5 -5,0 0,-5z M49,89l5,0 0,5 -5,0 0,-5z M54,89l5,0 0,5 -5,0 0,-5z M59,89l5,0 0,5 -5,0 0,-5z M69,89l5,0 0,5 -5,0 0,-5z M79,89l5,0 0,5 -5,0 0,-5z M89,89l5,0 0,5 -5,0 0,-5z M94,89l5,0 0,5 -5,0 0,-5z M99,89l5,0 0,5 -5,0 0,-5z M104,89l5,0 0,5 -5,0 0,-5z M114,89l5,0 0,5 -5,0 0,-5z M134,89l5,0 0,5 -5,0 0,-5z M144,89l5,0 0,5 -5,0 0,-5z M154,89l5,0 0,5 -5,0 0,-5z M159,89l5,0 0,5 -5,0 0,-5z M164,89l5,0 0,5 -5,0 0,-5z M4,94l5,0 0,5 -5,0 0,-5z M9,94l5,0 0,5 -5,0 0,-5z M34,94l5,0 0,5 -5,0 0,-5z M44,94l5,0 0,5 -5,0 0,-5z M49,94l5,0 0,5 -5,0 0,-5z M59,94l5,0 0,5 -5,0 0,-5z M74,94l5,0 0,5 -5,0 0,-5z M79,94l5,0 0,5 -5,0 0,-5z M89,94l5,0 0,5 -5,0 0,-5z M94,94l5,0 0,5 -5,0 0,-5z M99,94l5,0 0,5 -5,0 0,-5z M104,94l5,0 0,5 -5,0 0,-5z M109,94l5,0 0,5 -5,0 0,-5z M119,94l5,0 0,5 -5,0 0,-5z M134,94l5,0 0,5 -5,0 0,-5z M139,94l5,0 0,5 -5,0 0,-5z M149,94l5,0 0,5 -5,0 0,-5z M154,94l5,0 0,5 -5,0 0,-5z M164,94l5,0 0,5 -5,0 0,-5z M4,99l5,0 0,5 -5,0 0,-5z M9,99l5,0 0,5 -5,0 0,-5z M14,99l5,0 0,5 -5,0 0,-5z M19,99l5,0 0,5 -5,0 0,-5z M44,99l5,0 0,5 -5,0 0,-5z M54,99l5,0 0,5 -5,0 0,-5z M64,99l5,0 0,5 -5,0 0,-5z M74,99l5,0 0,5 -5,0 0,-5z M79,99l5,0 0,5 -5,0 0,-5z M99,99l5,0 0,5 -5,0 0,-5z M114,99l5,0 0,5 -5,0 0,-5z M134,99l5,0 0,5 -5,0 0,-5z M144,99l5,0 0,5 -5,0 0,-5z M149,99l5,0 0,5 -5,0 0,-5z M154,99l5,0 0,5 -5,0 0,-5z M164,99l5,0 0,5 -5,0 0,-5z M9,104l5,0 0,5 -5,0 0,-5z M19,104l5,0 0,5 -5,0 0,-5z M24,104l5,0 0,5 -5,0 0,-5z M34,104l5,0 0,5 -5,0 0,-5z M39,104l5,0 0,5 -5,0 0,-5z M49,104l5,0 0,5 -5,0 0,-5z M59,104l5,0 0,5 -5,0 0,-5z M69,104l5,0 0,5 -5,0 0,-5z M79,104l5,0 0,5 -5,0 0,-5z M84,104l5,0 0,5 -5,0 0,-5z M94,104l5,0 0,5 -5,0 0,-5z M99,104l5,0 0,5 -5,0 0,-5z M119,104l5,0 0,5 -5,0 0,-5z M139,104l5,0 0,5 -5,0 0,-5z M149,104l5,0 0,5 -5,0 0,-5z M159,104l5,0 0,5 -5,0 0,-5z M164,104l5,0 0,5 -5,0 0,-5z M4,109l5,0 0,5 -5,0 0,-5z M9,109l5,0 0,5 -5,0 0,-5z M14,109l5,0 0,5 -5,0 0,-5z M24,109l5,0 0,5 -5,0 0,-5z M39,109l5,0 0,5 -5,0 0,-5z M44,109l5,0 0,5 -5,0 0,-5z M54,109l5,0 0,5 -5,0 0,-5z M59,109l5,0 0,5 -5,0 0,-5z M64,109l5,0 0,5 -5,0 0,-5z M69,109l5,0 0,5 -5,0 0,-5z M74,109l5,0 0,5 -5,0 0,-5z M89,109l5,0 0,5 -5,0 0,-5z M109,109l5,0 0,5 -5,0 0,-5z M119,109l5,0 0,5 -5,0 0,-5z M139,109l5,0 0,5 -5,0 0,-5z M144,109l5,0 0,5 -5,0 0,-5z M154,109l5,0 0,5 -5,0 0,-5z M4,114l5,0 0,5 -5,0 0,-5z M14,114l5,0 0,5 -5,0 0,-5z M19,114l5,0 0,5 -5,0 0,-5z M34,114l5,0 0,5 -5,0 0,-5z M59,114l5,0 0,5 -5,0 0,-5z M74,114l5,0 0,5 -5,0 0,-5z M89,114l5,0 0,5 -5,0 0,-5z M94,114l5,0 0,5 -5,0 0,-5z M99,114l5,0 0,5 -5,0 0,-5z M104,114l5,0 0,5 -5,0 0,-5z M114,114l5,0 0,5 -5,0 0,-5z M119,114l5,0 0,5 -5,0 0,-5z M159,114l5,0 0,5 -5,0 0,-5z M164,114l5,0 0,5 -5,0 0,-5z M4,119l5,0 0,5 -5,0 0,-5z M14,119l5,0 0,5 -5,0 0,-5z M19,119l5,0 0,5 -5,0 0,-5z M24,119l5,0 0,5 -5,0 0,-5z M29,119l5,0 0,5 -5,0 0,-5z M44,119l5,0 0,5 -5,0 0,-5z M54,119l5,0 0,5 -5,0 0,-5z M59,119l5,0 0,5 -5,0 0,-5z M64,119l5,0 0,5 -5,0 0,-5z M69,119l5,0 0,5 -5,0 0,-5z M74,119l5,0 0,5 -5,0 0,-5z M79,119l5,0 0,5 -5,0 0,-5z M89,119l5,0 0,5 -5,0 0,-5z M99,119l5,0 0,5 -5,0 0,-5z M104,119l5,0 0,5 -5,0 0,-5z M114,119l5,0 0,5 -5,0 0,-5z M119,119l5,0 0,5 -5,0 0,-5z M134,119l5,0 0,5 -5,0 0,-5z M139,119l5,0 0,5 -5,0 0,-5z M149,119l5,0 0,5 -5,0 0,-5z M154,119l5,0 0,5 -5,0 0,-5z M159,119l5,0 0,5 -5,0 0,-5z M4,124l5,0 0,5 -5,0 0,-5z M9,124l5,0 0,5 -5,0 0,-5z M14,124l5,0 0,5 -5,0 0,-5z M19,124l5,0 0,5 -5,0 0,-5z M24,124l5,0 0,5 -5,0 0,-5z M29,124l5,0 0,5 -5,0 0,-5z M34,124l5,0 0,5 -5,0 0,-5z M39,124l5,0 0,5 -5,0 0,-5z M59,124l5,0 0,5 -5,0 0,-5z M74,124l5,0 0,5 -5,0 0,-5z M124,124l5,0 0,5 -5,0 0,-5z M129,124l5,0 0,5 -5,0 0,-5z M134,124l5,0 0,5 -5,0 0,-5z M139,124l5,0 0,5 -5,0 0,-5z M144,124l5,0 0,5 -5,0 0,-5z M149,124l5,0 0,5 -5,0 0,-5z M159,124l5,0 0,5 -5,0 0,-5z M164,124l5,0 0,5 -5,0 0,-5z M44,129l5,0 0,5 -5,0 0,-5z M59,129l5,0 0,5 -5,0 0,-5z M69,129l5,0 0,5 -5,0 0,-5z M74,129l5,0 0,5 -5,0 0,-5z M79,129l5,0 0,5 -5,0 0,-5z M89,129l5,0 0,5 -5,0 0,-5z M94,129l5,0 0,5 -5,0 0,-5z M124,129l5,0 0,5 -5,0 0,-5z M144,129l5,0 0,5 -5,0 0,-5z M154,129l5,0 0,5 -5,0 0,-5z M159,129l5,0 0,5 -5,0 0,-5z M4,134l5,0 0,5 -5,0 0,-5z M9,134l5,0 0,5 -5,0 0,-5z M14,134l5,0 0,5 -5,0 0,-5z M19,134l5,0 0,5 -5,0 0,-5z M24,134l5,0 0,5 -5,0 0,-5z M29,134l5,0 0,5 -5,0 0,-5z M34,134l5,0 0,5 -5,0 0,-5z M44,134l5,0 0,5 -5,0 0,-5z M49,134l5,0 0,5 -5,0 0,-5z M59,134l5,0 0,5 -5,0 0,-5z M64,134l5,0 0,5 -5,0 0,-5z M74,134l5,0 0,5 -5,0 0,-5z M79,134l5,0 0,5 -5,0 0,-5z M89,134l5,0 0,5 -5,0 0,-5z M99,134l5,0 0,5 -5,0 0,-5z M104,134l5,0 0,5 -5,0 0,-5z M114,134l5,0 0,5 -5,0 0,-5z M119,134l5,0 0,5 -5,0 0,-5z M124,134l5,0 0,5 -5,0 0,-5z M134,134l5,0 0,5 -5,0 0,-5z M144,134l5,0 0,5 -5,0 0,-5z M154,134l5,0 0,5 -5,0 0,-5z M4,139l5,0 0,5 -5,0 0,-5z M34,139l5,0 0,5 -5,0 0,-5z M44,139l5,0 0,5 -5,0 0,-5z M59,139l5,0 0,5 -5,0 0,-5z M74,139l5,0 0,5 -5,0 0,-5z M79,139l5,0 0,5 -5,0 0,-5z M89,139l5,0 0,5 -5,0 0,-5z M94,139l5,0 0,5 -5,0 0,-5z M104,139l5,0 0,5 -5,0 0,-5z M114,139l5,0 0,5 -5,0 0,-5z M119,139l5,0 0,5 -5,0 0,-5z M124,139l5,0 0,5 -5,0 0,-5z M144,139l5,0 0,5 -5,0 0,-5z M149,139l5,0 0,5 -5,0 0,-5z M154,139l5,0 0,5 -5,0 0,-5z M159,139l5,0 0,5 -5,0 0,-5z M4,144l5,0 0,5 -5,0 0,-5z M14,144l5,0 0,5 -5,0 0,-5z M19,144l5,0 0,5 -5,0 0,-5z M24,144l5,0 0,5 -5,0 0,-5z M34,144l5,0 0,5 -5,0 0,-5z M44,144l5,0 0,5 -5,0 0,-5z M54,144l5,0 0,5 -5,0 0,-5z M64,144l5,0 0,5 -5,0 0,-5z M69,144l5,0 0,5 -5,0 0,-5z M84,144l5,0 0,5 -5,0 0,-5z M89,144l5,0 0,5 -5,0 0,-5z M99,144l5,0 0,5 -5,0 0,-5z M104,144l5,0 0,5 -5,0 0,-5z M119,144l5,0 0,5 -5,0 0,-5z M124,144l5,0 0,5 -5,0 0,-5z M129,144l5,0 0,5 -5,0 0,-5z M134,144l5,0 0,5 -5,0 0,-5z M139,144l5,0 0,5 -5,0 0,-5z M144,144l5,0 0,5 -5,0 0,-5z M164,144l5,0 0,5 -5,0 0,-5z M4,149l5,0 0,5 -5,0 0,-5z M14,149l5,0 0,5 -5,0 0,-5z M19,149l5,0 0,5 -5,0 0,-5z M24,149l5,0 0,5 -5,0 0,-5z M34,149l5,0 0,5 -5,0 0,-5z M44,149l5,0 0,5 -5,0 0,-5z M49,149l5,0 0,5 -5,0 0,-5z M69,149l5,0 0,5 -5,0 0,-5z M84,149l5,0 0,5 -5,0 0,-5z M94,149l5,0 0,5 -5,0 0,-5z M114,149l5,0 0,5 -5,0 0,-5z M124,149l5,0 0,5 -5,0 0,-5z M129,149l5,0 0,5 -5,0 0,-5z M139,149l5,0 0,5 -5,0 0,-5z M159,149l5,0 0,5 -5,0 0,-5z M164,149l5,0 0,5 -5,0 0,-5z M4,154l5,0 0,5 -5,0 0,-5z M14,154l5,0 0,5 -5,0 0,-5z M19,154l5,0 0,5 -5,0 0,-5z M24,154l5,0 0,5 -5,0 0,-5z M34,154l5,0 0,5 -5,0 0,-5z M54,154l5,0 0,5 -5,0 0,-5z M59,154l5,0 0,5 -5,0 0,-5z M79,154l5,0 0,5 -5,0 0,-5z M99,154l5,0 0,5 -5,0 0,-5z M119,154l5,0 0,5 -5,0 0,-5z M129,154l5,0 0,5 -5,0 0,-5z M139,154l5,0 0,5 -5,0 0,-5z M144,154l5,0 0,5 -5,0 0,-5z M154,154l5,0 0,5 -5,0 0,-5z M159,154l5,0 0,5 -5,0 0,-5z M164,154l5,0 0,5 -5,0 0,-5z M4,159l5,0 0,5 -5,0 0,-5z M34,159l5,0 0,5 -5,0 0,-5z M59,159l5,0 0,5 -5,0 0,-5z M64,159l5,0 0,5 -5,0 0,-5z M74,159l5,0 0,5 -5,0 0,-5z M114,159l5,0 0,5 -5,0 0,-5z M139,159l5,0 0,5 -5,0 0,-5z M144,159l5,0 0,5 -5,0 0,-5z M149,159l5,0 0,5 -5,0 0,-5z M154,159l5,0 0,5 -5,0 0,-5z M159,159l5,0 0,5 -5,0 0,-5z M164,159l5,0 0,5 -5,0 0,-5z M4,164l5,0 0,5 -5,0 0,-5z M9,164l5,0 0,5 -5,0 0,-5z M14,164l5,0 0,5 -5,0 0,-5z M19,164l5,0 0,5 -5,0 0,-5z M24,164l5,0 0,5 -5,0 0,-5z M29,164l5,0 0,5 -5,0 0,-5z M34,164l5,0 0,5 -5,0 0,-5z M44,164l5,0 0,5 -5,0 0,-5z M54,164l5,0 0,5 -5,0 0,-5z M59,164l5,0 0,5 -5,0 0,-5z M64,164l5,0 0,5 -5,0 0,-5z M69,164l5,0 0,5 -5,0 0,-5z M74,164l5,0 0,5 -5,0 0,-5z M79,164l5,0 0,5 -5,0 0,-5z M84,164l5,0 0,5 -5,0 0,-5z M89,164l5,0 0,5 -5,0 0,-5z M94,164l5,0 0,5 -5,0 0,-5z M124,164l5,0 0,5 -5,0 0,-5z M129,164l5,0 0,5 -5,0 0,-5z M139,164l5,0 0,5 -5,0 0,-5z M144,164l5,0 0,5 -5,0 0,-5z " stroke="transparent" fill="black"/></svg>
